<?xml version="1.0" encoding="UTF-8"?>
<!DOCTYPE svg PUBLIC "-//W3C//DTD SVG 1.0//EN" "http://www.w3.org/TR/2001/REC-SVG-20010904/DTD/svg10.dtd">
<!-- Creator: CorelDRAW 2020 (64-Bit) -->
<svg xmlns="http://www.w3.org/2000/svg" xml:space="preserve" width="204.44mm" height="180.047mm" version="1.0" shape-rendering="geometricPrecision" text-rendering="geometricPrecision" image-rendering="optimizeQuality" fill-rule="evenodd" clip-rule="evenodd"
viewBox="0 0 5281.01 4650.9"
 xmlnsXlink="http://www.w3.org/1999/xlink"
 xmlnsXodm="http://www.corel.com/coreldraw/odm/2003">
 <g id="Layer_x0020_1">
  <metadata id="CorelCorpID_0Corel-Layer"/>
  <path fill="#F7F7F8" d="M5019.7 3516.22c218.94,-367.5 557.9,-1199.58 -246.29,-1960.96 -1071.19,-1014.18 -1250.23,-177.96 -2119.31,-1115.6 -1496.47,-1614.52 -3320.25,1613.37 -1993.76,3297.87 981.95,1246.98 3477.78,1258.42 4359.36,-221.31z"/>
  <g id="_1842344898144">
   <polygon fill="#4D4D4D" points="4507.85,3569.6 4519.64,3707.9 4477.98,3708.23 4479.97,3688.14 4450.42,3689.3 4449.42,3708.23 4161.54,3708.27 4330.88,3640.32 4323.25,3574.25 "/>
   <path fill="#4D4D4D" d="M4150.09 3580.88c1.99,5.98 33.87,127.33 33.87,127.33l-53.45 0.17 0.99 -20.59 -29.22 21.25 -270.11 -0.58 162.53 -71.14 -14.61 -47.81 170 -8.63z"/>
   <path fill="#334154" d="M4160.55 2158.97c0,0 -218.49,574.41 -255.67,608.95 -37.19,34.53 119.52,164.69 188.59,472.81 69.06,308.12 85,342.66 85,342.66l-225.78 15.94c0,0 -357.95,-709.89 -357.95,-794.89 0,-85 77.69,-655.43 189.26,-846.68 111.56,-191.25 111.56,-286.87 111.56,-286.87l225.12 42.5 39.88 445.59z"/>
   <path fill="#164A7C" d="M4118.72 1716.05c0,0 37.18,483.44 61.09,701.25 23.91,217.81 122.18,1163.43 122.18,1163.43l224.46 -3.98c0,0 71.71,-1127.58 66.4,-1353.36 -5.31,-225.78 2.66,-422.34 2.66,-422.34l-21.25 -69.06 -455.54 -15.94z"/>
   <polygon fill="#1A5692" points="4471.95,3512.99 4453.36,1967.05 4494.52,2636.43 "/>
   <path fill="#164A7C" d="M3862.32 1790.42c0,0 148.75,42.5 95.63,324.07 -53.13,281.56 -266.31,598.99 -361.93,662.74 5.73,-71.68 34.53,-315.4 83.51,-511.87 64.45,-258.57 162.85,-497.51 162.85,-497.51l19.95 22.57z"/>
   <path fill="#124069" d="M4081.38 2067.35c-68.31,170.78 -264.9,554.93 -300.16,695.93 0,0 334.68,680 324.06,780.94 -138.41,-332 -307.08,-693.55 -339.33,-780.27 7.97,-39.18 282.22,-655.42 315.43,-696.6z"/>
   <polygon fill="#FDCA9B" points="3722.43,1513.58 3568.36,1707.49 3594.92,1884.13 3658.67,1842.96 3804.76,1726.08 3836.64,1553.42 3831.33,1518.9 "/>
   <path fill="#FDCA9B" d="M4312.79 747.17l0.66 -170 65.74 -63.75c0,0 54.46,-42.5 45.16,-99.61 -9.3,-57.11 -34.53,-41.17 -50.47,-99.61 -15.94,-58.44 -100.94,-111.56 -138.13,-102.27 -37.18,9.3 -171.33,49.14 -219.14,42.5 -47.81,-6.64 -21.25,88.99 -21.25,88.99 0,0 15.94,87.65 14.61,139.45 -1.33,51.8 0,78.36 34.53,87.66 34.53,9.3 91.64,15.94 91.64,15.94 0,0 -27.89,179.96 -29.22,190.59 -1.33,10.63 -13.28,121.52 -13.28,121.52l219.14 -151.41z"/>
   <path fill="#663333" d="M4308.63 423.21c0,0 15.94,-0 21.25,-26.57 5.31,-26.56 37.19,-29.22 47.81,-25.23 10.62,3.99 47.81,33.2 27.89,74.37 -19.92,41.17 -66.4,39.84 -66.4,39.84 0,0 -26.57,5.32 -26.57,45.16 0,39.84 -5.98,61.09 -5.98,61.09 0,0 129.49,-31.88 129.49,-204.53 0,-172.65 -43.83,-231.09 -114.22,-245.7 -70.39,-14.61 -173.99,35.86 -260.31,-5.31 -86.33,-41.17 -158.05,-9.3 -156.72,53.13 1.33,62.42 5.31,96.96 33.2,122.19 27.89,25.23 39.85,26.56 39.85,26.56 0,0 -17.26,31.87 2.66,49.14 19.92,17.27 29.22,13.28 29.22,13.28l-10.62 -49.14c0,0 82.35,11.95 131.49,-33.2 49.14,-45.16 126.17,-82.35 146.09,-69.06 19.92,13.28 29.22,38.51 22.58,103.6 -6.64,65.08 9.3,70.39 9.3,70.39z"/>
   <path fill="white" d="M4299.34 739.31c-39.05,48.87 -109.53,81.16 -149.4,66.2 -24.3,-9.12 -49.29,-33.71 -28.56,-76.83 0,0 -66.41,6.65 -88.98,29.22 -7.74,7.74 -53.64,75.37 -67.44,182.03 -30.6,236.39 -33.5,622.95 -33.5,679.94 0,103.6 18.59,104.92 18.59,104.92l361.25 15.94c0,0 29.21,-665.39 34.52,-718.52 5.31,-53.13 7.97,-298.83 -46.47,-282.9z"/>
   <path fill="#E6E6E6" d="M4290.02 1295.81c0,0 -92.97,342.65 -215.16,324.06 -122.19,-18.59 -143.44,-170 -143.44,-170l-22.58 285.55 456.88 25.23 41.17 -443.6 -116.88 -21.25z"/>
   <path fill="#2896FF" d="M4310.89 724.24c0,0 127.84,-4.82 159.71,27.73 31.87,32.54 494.73,515.31 494.73,515.31l-177.97 111.56 -23.24 8.64 -122.19 -125.51 13.27 538.56c0,0 -122.32,83.08 -211.18,120.21 -118.3,49.44 -123.58,55.74 -143.44,-71.06 -32.16,-205.36 -42.21,-407.26 -26.68,-608.66 14.13,-183.4 53.57,-348.72 36.98,-516.78z"/>
   <path fill="#1E72BE" d="M4587.36 1692.13l1.33 49.14c0,0 -227.77,15.27 -249.02,3.99 -21.25,-11.29 -6.64,-64.41 -6.64,-64.41 0,0 54.45,17.93 254.34,11.29z"/>
   <path fill="#0582FF" d="M4642.95 1385.21c0,0 -45.64,-25.39 -97.44,-154.22 -51.8,-128.83 -41.84,-160.7 -41.84,-160.7 25.44,56.01 90,134.52 134.14,187.27l5.14 127.65z"/>
   <path fill="#1E72BE" d="M4308.95 725.18c0,0 62.43,2.33 92.97,57.44 30.55,55.12 35.19,154.73 12.61,274.26 -22.58,119.53 -88.98,291.54 -147.42,336.69 9.27,-59.94 7.24,-175.53 17.52,-302.39 10.34,-127.53 16.04,-281.4 24.32,-366z"/>
   <path fill="#2896FF" d="M4120.73 726.58c-3.48,-0.5 -110.23,-5.66 -225.78,97.27 -115.55,102.93 -163.69,599.32 -163.69,599.32l74.04 109.58c0,0 -9.29,177.97 -3.98,197.89 5.31,19.92 138.45,233.09 162.03,219.14 11.32,-6.69 17.48,-486.47 12.48,-547.74 -21.55,-263.95 -50.22,-662.21 144.9,-675.46z"/>
   <path fill="#1E72BE" d="M4121.91 728.57c0,0 -86.32,4.64 -161.36,101.6 -75.04,96.95 -67.08,157.39 -75.05,230.43 -4.26,39.13 90.31,341.33 90.31,341.33 0,0 9.51,-97.6 9.01,-227.77 -0.71,-186.09 5.01,-415.11 137.08,-445.58z"/>
   <path fill="#FFAF66" d="M4133.14 585.81c0,0 77.03,-0.66 114.22,-36.53 37.19,-35.86 -9.96,88.99 -124.18,106.25 5.97,-33.87 9.96,-69.72 9.96,-69.72z"/>
   <path fill="#F7F7F8" d="M4127.86 462.63l-71.39 3.65c-0.82,35.16 61.69,63.79 71.39,-3.65z"/>
   <g>
    <line fill="none" stroke="#0564FF" stroke-width="5.17" stroke-miterlimit="22.9256" x1="4298.52" y1="370.34" x2="4252.7" y2= "376.32" />
    <circle fill="none" stroke="#0564FF" stroke-width="5.17" stroke-miterlimit="22.9256" cx="4180.98" cy="384.96" r="78.36"/>
    <circle fill="none" stroke="#0564FF" stroke-width="5.17" stroke-miterlimit="22.9256" cx="3996.37" cy="384.96" r="78.36"/>
    <line fill="none" stroke="#0564FF" stroke-width="5.17" stroke-miterlimit="22.9256" x1="4101.96" y1="379.65" x2="4076.72" y2= "380.31" />
    <line fill="none" stroke="#0564FF" stroke-width="5.17" stroke-miterlimit="22.9256" x1="3922.33" y1="367.37" x2="3969.47" y2= "367.37" />
   </g>
   <path fill="#1E72BE" d="M4777.64 1356.84c0,0 -27.89,30.55 -3.98,47.81 23.91,17.27 181.95,-51.8 181.95,-51.8 0,0 73.05,-1.33 65.08,-49.14 -7.97,-47.81 -58.44,-95.62 -78.36,-78.36 -19.92,17.26 -164.69,131.48 -164.69,131.48z"/>
   <path fill="#FDCA9B" d="M5007.41 1336.91c0,0 62.42,79.69 38.51,100.94 -23.91,21.25 -57.11,35.86 -131.49,82.35 -74.37,46.48 -332.03,158.05 -354.61,168.67 -22.57,10.63 -177.97,-1.33 -177.97,-1.33 0,0 122.19,-122.19 251.02,-193.9 128.83,-71.72 154.06,-85 154.06,-85 0,0 163.36,-83.67 220.47,-71.72z"/>
   <path fill="#0582FF" d="M3800.47 1486.68l-30.55 -59.77c-3.05,-126.88 23.14,-281.17 70.39,-470.16l-39.84 529.92z"/>
   <path fill="#1E72BE" d="M3807.26 1537.67l-89.65 -25.9c0,0 -0.5,-82.84 10.13,-88.16 10.62,-5.31 75.04,38.51 75.7,46.48 0.66,7.97 3.82,67.57 3.82,67.57z"/>
   <path fill="#1E72BE" d="M3806.09 1688.89c0,0 138.79,5.31 144.77,1.33 5.98,-3.99 6.64,41.17 0.67,47.81 -5.97,6.64 -92.31,-7.3 -117.54,-4.65 -25.23,2.66 -45.16,-8.63 -27.89,-44.49z"/>
   <path fill="#FEDEC2" d="M3685.23 1615.85c0,0 66.4,-23.9 82.34,-11.95 15.94,11.95 -10.62,116.88 -43.83,147.42 -33.21,30.55 -108.91,75.7 -108.91,75.7 0,0 -10.62,-51.79 -7.97,-65.07 2.66,-13.28 43.83,-123.52 43.83,-123.52l34.53 -22.58z"/>
   <path fill="#FFAF66" d="M4358.9 404.95c0,0 11.29,9.13 0.66,23.74 -10.62,14.61 -27.23,2.82 -27.23,2.82 0,0 22.58,-5.97 26.57,-26.56z"/>
   <g>
    <polygon fill="#E6E6E6" points="3485.25,3398.69 3323.71,3707.24 3295.58,3708.79 3219.31,3375.51 3243.14,3285.6 3389.95,3283.73 3464.04,3320.85 "/>
    <path fill="#F7F7F8" d="M3357.67 3623.54c0,0 69.52,-124.59 55.95,-183.1 -13.57,-58.51 -111.7,-95.06 -149.74,-41.04 -38.04,54.01 -23.94,60.57 -23.94,60.57l52.43 224.54 46.66 -30.59 18.64 -30.37z"/>
    <polygon fill="#2896FF" points="3365.03,3630.85 3264.03,3566.05 3295.59,3708.79 3325.64,3708.07 "/>
    <polygon fill="#2896FF" points="3220.19,3371.31 3259.39,3316.2 3297.89,3374.48 3354.95,3321.15 3398.48,3386.68 3449.43,3330.89 3481.99,3396.09 3721.96,861.42 3460.16,836.63 "/>
    <path fill="#D74B72" d="M3708.47 612l-190.25 -18.01c-19.13,-1.81 -36.26,12.36 -38.08,31.49l-10.23 108.02 261.8 24.79 10.04 -106.04c1.91,-20.22 -13.06,-38.33 -33.28,-40.24z"/>
    <rect fill="#E6E6E6" transform="matrix(-1.16075 -0.109893 0.0793696 -0.838346 3721.95 861.418)" width="225.54" height="123.02"/>
    <path fill="#E95D84" d="M3700.27 674.57c-32.12,24.55 -151.47,14.84 -191.33,5.9 -37.25,-8.35 -37.52,-65.33 9.66,-74.73 23.84,-4.76 155.05,-3.74 181.51,17.69 11.86,9.6 24.01,32.92 0.16,51.14z"/>
    <polygon fill="#1E72BE" points="3680.94,857.68 3585.49,851.49 3354.94,3321.77 3398.43,3387.76 3449.48,3334.68 "/>
    <path fill="#1E72BE" d="M3219.96 3371.95c20.28,-29.04 25.21,-36.22 40.35,-55.85l221.07 -2477.66 -18.21 1.11 -243.21 2532.39z"/>
   </g>
   <path fill="#FDCA9B" d="M3293.43 1947.88c0,0 73.05,-96.48 91.64,-100.57 18.6,-4.09 22.58,8.31 6.64,31.49 -15.94,23.18 -30.55,55.97 -18.59,49.15 11.95,-6.82 102.59,-52.44 113.88,-33.53 11.29,18.9 -99.27,70.73 -82,70.73 17.26,0 112.55,-8.96 105.91,13.28 -6.64,22.25 -108.58,16.93 -107.25,30.22 1.33,13.28 85.66,13.95 68.4,25.9 -17.26,11.95 -102.93,10.29 -146.76,-0.33 -43.83,-10.62 -53.13,-54.45 -31.87,-86.33z"/>
  </g>
  <g id="_1842344847696">
   <rect fill="#1E72BE" stroke="#164A7C" stroke-width="1.97" stroke-miterlimit="22.9256" x="940.57" y="713.77" width="1836.23" height="2656.39"/>
   <polygon fill="#B5DAFF" points="1043.1,816.29 2467.55,816.29 2674.28,1110.74 2674.28,3197.02 1043.1,3197.02 "/>
   <polygon fill="white" points="1043.1,816.29 2467.55,816.29 2396.34,1119.29 2674.28,1110.74 2674.28,3197.02 1043.1,3197.02 "/>
   <g>
    <g>
     <path fill="#B5DAFF" d="M1243.11 1883.82l187.92 0.03 0.3 -105.08 -17.82 20.98c-3.24,4.06 -3.75,2.92 -3.68,9.87 0.16,16.64 0.87,36.39 -0.1,52.74l-145.82 0 0 -145.94 133.46 0c2.4,-0.41 17.81,-19.89 18.43,-21.2l-172.98 -0.27c-1.61,6.99 -0.38,37.96 -0.38,47.42 0,19.6 -0.89,138.95 0.68,141.45z"/>
     <path fill="#1E72BE" d="M1427.16 1706.36l-39.25 47.55c-5.41,6.38 -37.27,44.18 -39.43,47.98 -2.96,-1.77 -22.23,-20.84 -26.36,-24.8 -5.84,-5.59 -22.23,-23.11 -26.04,-25.18 -3.25,3.17 -19.7,18.94 -21.04,21.56l75.04 74.93c1.1,-1.31 2.15,-2.21 3.48,-3.69l23.87 -27.5c7.65,-7.9 49.04,-60.68 59.31,-73.08l19.87 -24.84c-1.49,-1.71 -21.69,-17.84 -23.81,-18.96 -1.96,1.39 -3.87,4.34 -5.65,6.02z"/>
    </g>
    <g>
     <rect fill="#1E72BE" x="1593.32" y="1707.67" width="457.92" height="34.74"/>
     <rect fill="#B5DAFF" x="1593.32" y="1772.03" width="884.53" height="34.74"/>
     <rect fill="#B5DAFF" x="1593.32" y="1836.39" width="884.53" height="34.74"/>
    </g>
   </g>
   <polygon fill="#1E72BE" fill-rule="nonzero" points="1655.9,1167.3 1588.65,1167.3 1588.65,1037.65 1603.84,1037.65 1603.84,1153.57 1655.9,1153.57 "/>
   <polygon id="1" fill="#1E72BE" fill-rule="nonzero" points="1691,1167.3 1675.81,1167.3 1675.81,1037.65 1691,1037.65 "/>
   <path id="2" fill="#1E72BE" fill-rule="nonzero" d="M1777.35 1169.46c-18.39,0 -33.12,-6.05 -44.16,-18.18 -11.05,-12.1 -16.6,-27.87 -16.6,-47.28 0,-20.86 5.65,-37.5 16.91,-49.91 11.27,-12.41 26.63,-18.64 46.05,-18.64 17.9,0 32.32,6.05 43.24,18.08 10.96,12.07 16.42,27.84 16.42,47.31 0,21.14 -5.62,37.87 -16.82,50.18 -11.2,12.29 -26.2,18.43 -45.03,18.43zm1.08 -120.24c-13.61,0 -24.66,4.91 -33.18,14.72 -8.49,9.84 -12.75,22.74 -12.75,38.7 0,15.99 4.14,28.83 12.44,38.58 8.27,9.72 19.1,14.6 32.41,14.6 14.23,0 25.43,-4.63 33.64,-13.92 8.21,-9.29 12.28,-22.28 12.28,-38.98 0,-17.13 -3.95,-30.34 -11.91,-39.69 -7.96,-9.35 -18.95,-14.01 -32.93,-14.01z"/>
   <path id="3" fill="#1E72BE" fill-rule="nonzero" d="M1858.61 1162.06l0 -17.9c2.07,1.82 4.54,3.43 7.37,4.88 2.87,1.45 5.89,2.68 9.04,3.67 3.18,0.99 6.36,1.76 9.54,2.31 3.21,0.52 6.17,0.8 8.86,0.8 9.35,0 16.33,-1.73 20.95,-5.22 4.6,-3.46 6.92,-8.45 6.92,-14.94 0,-3.52 -0.77,-6.54 -2.32,-9.13 -1.54,-2.59 -3.67,-4.97 -6.36,-7.1 -2.71,-2.16 -5.93,-4.2 -9.63,-6.17 -3.74,-1.94 -7.72,-4.01 -12.01,-6.17 -4.51,-2.28 -8.73,-4.63 -12.65,-6.97 -3.92,-2.35 -7.31,-4.94 -10.22,-7.78 -2.9,-2.84 -5.15,-6.05 -6.82,-9.63 -1.67,-3.58 -2.5,-7.78 -2.5,-12.59 0,-5.93 1.3,-11.05 3.89,-15.43 2.59,-4.38 6.02,-7.96 10.21,-10.8 4.23,-2.84 9.04,-4.94 14.45,-6.33 5.37,-1.39 10.9,-2.1 16.48,-2.1 12.78,0 22.1,1.54 27.96,4.63l0 17.1c-7.65,-5.31 -17.5,-7.96 -29.47,-7.96 -3.33,0 -6.64,0.34 -9.97,1.02 -3.3,0.71 -6.27,1.85 -8.86,3.39 -2.59,1.57 -4.69,3.61 -6.33,6.08 -1.64,2.47 -2.44,5.46 -2.44,9.04 0,3.3 0.62,6.17 1.85,8.58 1.23,2.41 3.06,4.6 5.46,6.61 2.41,1.98 5.37,3.92 8.83,5.77 3.46,1.88 7.47,3.92 11.98,6.14 4.66,2.31 9.04,4.72 13.21,7.25 4.17,2.53 7.81,5.34 10.93,8.39 3.15,3.09 5.62,6.48 7.47,10.22 1.85,3.74 2.75,8.02 2.75,12.84 0,6.39 -1.23,11.82 -3.74,16.24 -2.5,4.44 -5.89,8.05 -10.12,10.8 -4.26,2.78 -9.17,4.78 -14.69,6.02 -5.56,1.23 -11.39,1.85 -17.56,1.85 -2.04,0 -4.57,-0.15 -7.59,-0.49 -2.99,-0.34 -6.08,-0.8 -9.23,-1.45 -3.12,-0.62 -6.08,-1.42 -8.89,-2.35 -2.81,-0.93 -5.06,-1.98 -6.76,-3.12z"/>
   <polygon id="4" fill="#1E72BE" fill-rule="nonzero" points="2039.75,1051.38 2002.31,1051.38 2002.31,1167.3 1987.13,1167.3 1987.13,1051.38 1949.78,1051.38 1949.78,1037.65 2039.75,1037.65 "/>
   <path id="5" fill="#1E72BE" fill-rule="nonzero" d="M2146.54 1167.3l-16.82 0 -13.73 -36.36 -55 0 -12.93 36.36 -16.88 0 49.72 -129.66 15.74 0 49.91 129.66zm-35.55 -50l-20.34 -55.25c-0.65,-1.82 -1.33,-4.72 -1.98,-8.67l-0.37 0c-0.59,3.67 -1.3,6.54 -2.07,8.67l-20.18 55.25 44.94 0z"/>
   <rect fill="#1E72BE" x="1264.48" y="1197.74" width="1206.23" height="15.95"/>
   <path fill="#1E72BE" fill-rule="nonzero" d="M1548.11 1350.74l-10.03 0 0 -57.8c0,-4.57 0.27,-10.15 0.84,-16.78l-0.25 0c-0.96,3.9 -1.83,6.66 -2.59,8.35l-29.43 66.23 -4.94 0 -29.37 -65.73c-0.84,-1.93 -1.7,-4.86 -2.58,-8.84l-0.25 0c0.33,3.45 0.47,9.08 0.47,16.88l0 57.69 -9.72 0 0 -86.16 13.33 0 26.44 60.07c2.05,4.61 3.36,8.06 3.98,10.34l0.35 0c1.72,-4.72 3.12,-8.25 4.14,-10.56l26.99 -59.85 12.61 0 0 86.16z"/>
   <path id="1" fill="#1E72BE" fill-rule="nonzero" d="M1637.47 1350.74l-11.18 0 -9.13 -24.16 -36.55 0 -8.59 24.16 -11.22 0 33.04 -86.16 10.46 0 33.17 86.16zm-23.63 -33.23l-13.52 -36.71c-0.43,-1.21 -0.88,-3.14 -1.31,-5.76l-0.25 0c-0.39,2.44 -0.86,4.35 -1.37,5.76l-13.41 36.71 29.86 0z"/>
   <path id="2" fill="#1E72BE" fill-rule="nonzero" d="M1719.62 1350.74l-12.39 0 -44.34 -68.69c-1.13,-1.72 -2.05,-3.53 -2.77,-5.39l-0.35 0c0.31,1.85 0.47,5.78 0.47,11.84l0 62.25 -10.09 0 0 -86.16 13.1 0 43.13 67.6c1.81,2.79 2.97,4.72 3.49,5.77l0.25 0c-0.41,-2.48 -0.61,-6.71 -0.61,-12.68l0 -60.69 10.11 0 0 86.16z"/>
   <path id="3" fill="#1E72BE" fill-rule="nonzero" d="M1808.9 1350.74l-11.18 0 -9.13 -24.16 -36.55 0 -8.59 24.16 -11.22 0 33.04 -86.16 10.46 0 33.17 86.16zm-23.63 -33.23l-13.52 -36.71c-0.43,-1.21 -0.88,-3.14 -1.31,-5.76l-0.25 0c-0.39,2.44 -0.86,4.35 -1.37,5.76l-13.41 36.71 29.86 0z"/>
   <path id="4" fill="#1E72BE" fill-rule="nonzero" d="M1884.35 1344.85c-8.64,4.88 -18.26,7.32 -28.84,7.32 -12.29,0 -22.23,-3.96 -29.82,-11.9 -7.61,-7.92 -11.4,-18.42 -11.4,-31.48 0,-13.33 4.23,-24.28 12.65,-32.84 8.43,-8.55 19.12,-12.84 32.06,-12.84 9.37,0 17.25,1.54 23.61,4.57l0 11.18c-6.95,-4.41 -15.22,-6.61 -24.75,-6.61 -9.64,0 -17.56,3.32 -23.73,9.97 -6.17,6.64 -9.25,15.26 -9.25,25.84 0,10.89 2.87,19.46 8.59,25.68 5.72,6.24 13.5,9.35 23.32,9.35 6.73,0 12.55,-1.35 17.48,-4.02l0 -24.16 -18.87 0 0 -9.13 28.96 0 0 39.05z"/>
   <polygon id="5" fill="#1E72BE" fill-rule="nonzero" points="1950.02,1350.74 1904.37,1350.74 1904.37,1264.58 1948.12,1264.58 1948.12,1273.7 1914.46,1273.7 1914.46,1302.38 1945.59,1302.38 1945.59,1311.44 1914.46,1311.44 1914.46,1341.61 1950.02,1341.61 "/>
   <path id="6" fill="#1E72BE" fill-rule="nonzero" d="M2028.39 1350.74l-12.02 0 -14.44 -24.16c-1.31,-2.24 -2.58,-4.14 -3.84,-5.74 -1.25,-1.58 -2.52,-2.87 -3.81,-3.86 -1.31,-1 -2.71,-1.74 -4.21,-2.2 -1.5,-0.47 -3.2,-0.69 -5.09,-0.69l-8.29 0 0 36.65 -10.09 0 0 -86.16 25.72 0c3.75,0 7.24,0.47 10.42,1.42 3.18,0.94 5.95,2.36 8.29,4.29 2.36,1.93 4.18,4.33 5.49,7.18 1.33,2.87 1.99,6.22 1.99,10.07 0,3 -0.45,5.77 -1.35,8.27 -0.9,2.5 -2.18,4.74 -3.84,6.69 -1.66,1.97 -3.67,3.65 -6.01,5.02 -2.36,1.37 -4.98,2.46 -7.91,3.22l0 0.23c1.45,0.66 2.71,1.37 3.77,2.19 1.05,0.84 2.07,1.81 3.01,2.93 0.96,1.11 1.93,2.38 2.87,3.81 0.95,1.42 1.99,3.06 3.14,4.94l16.18 25.9zm-51.69 -77.03l0 31.26 13.7 0c2.52,0 4.86,-0.39 7,-1.15 2.15,-0.76 4,-1.85 5.56,-3.28 1.56,-1.42 2.79,-3.16 3.67,-5.23 0.88,-2.05 1.31,-4.37 1.31,-6.93 0,-4.61 -1.48,-8.2 -4.47,-10.79 -2.98,-2.59 -7.3,-3.88 -12.94,-3.88l-13.83 0z"/>
   <path id="7" fill="#1E72BE" fill-rule="nonzero" d="M2140.64 1350.74l-11.18 0 -9.13 -24.16 -36.55 0 -8.59 24.16 -11.22 0 33.04 -86.16 10.46 0 33.17 86.16zm-23.63 -33.23l-13.52 -36.71c-0.43,-1.21 -0.88,-3.14 -1.31,-5.76l-0.25 0c-0.39,2.44 -0.86,4.35 -1.37,5.76l-13.41 36.71 29.86 0z"/>
   <path id="8" fill="#1E72BE" fill-rule="nonzero" d="M2163.41 1318.17l0 32.57 -10.09 0 0 -86.16 23.67 0c9.21,0 16.35,2.23 21.44,6.73 5.07,4.49 7.59,10.81 7.59,18.99 0,8.16 -2.81,14.85 -8.45,20.06 -5.62,5.21 -13.23,7.82 -22.79,7.82l-11.36 0zm0 -44.47l0 35.34 10.58 0c6.95,0 12.29,-1.6 15.94,-4.78 3.67,-3.18 5.5,-7.69 5.5,-13.49 0,-11.38 -6.73,-17.06 -20.18,-17.06l-11.84 0z"/>
   <path id="9" fill="#1E72BE" fill-rule="nonzero" d="M2232.32 1318.17l0 32.57 -10.09 0 0 -86.16 23.67 0c9.21,0 16.35,2.23 21.44,6.73 5.07,4.49 7.59,10.81 7.59,18.99 0,8.16 -2.81,14.85 -8.45,20.06 -5.62,5.21 -13.23,7.82 -22.79,7.82l-11.36 0zm0 -44.47l0 35.34 10.58 0c6.95,0 12.29,-1.6 15.94,-4.78 3.67,-3.18 5.5,-7.69 5.5,-13.49 0,-11.38 -6.73,-17.06 -20.18,-17.06l-11.84 0z"/>
   <g>
    <path fill="#B3B3B3" d="M2167.21 726.32l-34.17 -136.69c-4.86,-19.45 -16.41,-36.45 -36.45,-36.45l-465.02 0c-20.05,0 -31.59,17 -36.45,36.45l-34.17 136.69 606.27 0zm-306.56 -127.47c19.82,0 35.88,16.06 35.88,35.88 0,19.82 -16.06,35.88 -35.88,35.88 -19.82,0 -35.88,-16.06 -35.88,-35.88 0,-19.82 16.06,-35.88 35.88,-35.88z"/>
    <polygon fill="#999999" points="1573.6,672.6 2155.11,672.6 2162.52,701.07 1566.48,701.07 "/>
   </g>
   <rect fill="#CCCCCC" x="1413.56" y="693.97" width="895.34" height="195.93" rx="27.34" ry="25.84"/>
   <path fill="#B3B3B3" d="M1439.39 693.97l843.66 0c14.21,0 25.84,11.63 25.84,25.84l0 82.74c0,35.21 -216.97,-54.65 -468.15,-48.35 -186.83,4.69 -427.19,93.02 -427.19,65.44l0 -99.83c0,-14.21 11.62,-25.84 25.84,-25.84z"/>
   <g>
    <g>
     <path fill="#B5DAFF" d="M1243.11 2248.33l187.92 0.03 0.3 -105.08 -17.82 20.98c-3.24,4.06 -3.75,2.92 -3.68,9.87 0.16,16.64 0.87,36.39 -0.1,52.74l-145.82 0 0 -145.94 133.46 0c2.4,-0.41 17.81,-19.89 18.43,-21.2l-172.98 -0.27c-1.61,6.99 -0.38,37.96 -0.38,47.42 0,19.6 -0.89,138.95 0.68,141.45z"/>
     <path fill="#1E72BE" d="M1427.16 2070.87l-39.25 47.55c-5.41,6.38 -37.27,44.18 -39.43,47.98 -2.96,-1.77 -22.23,-20.84 -26.36,-24.8 -5.84,-5.59 -22.23,-23.11 -26.04,-25.18 -3.25,3.17 -19.7,18.94 -21.04,21.56l75.04 74.93c1.1,-1.31 2.15,-2.21 3.48,-3.69l23.87 -27.5c7.65,-7.9 49.04,-60.68 59.31,-73.08l19.87 -24.84c-1.49,-1.71 -21.69,-17.84 -23.81,-18.96 -1.96,1.39 -3.87,4.34 -5.65,6.02z"/>
    </g>
    <g>
     <rect fill="#1E72BE" x="1593.32" y="2072.18" width="457.92" height="34.74"/>
     <rect fill="#B5DAFF" x="1593.32" y="2136.54" width="884.53" height="34.74"/>
     <rect fill="#B5DAFF" x="1593.32" y="2200.9" width="884.53" height="34.74"/>
    </g>
   </g>
   <g>
    <g>
     <path fill="#B5DAFF" d="M1243.11 2612.84l187.92 0.03 0.3 -105.08 -17.82 20.98c-3.24,4.06 -3.75,2.92 -3.68,9.87 0.16,16.64 0.87,36.39 -0.1,52.74l-145.82 0 0 -145.94 133.46 0c2.4,-0.41 17.81,-19.89 18.43,-21.2l-172.98 -0.27c-1.61,6.99 -0.38,37.96 -0.38,47.42 0,19.6 -0.89,138.95 0.68,141.45z"/>
     <path fill="#1E72BE" d="M1427.16 2435.38l-39.25 47.55c-5.41,6.38 -37.27,44.18 -39.43,47.98 -2.96,-1.77 -22.23,-20.84 -26.36,-24.8 -5.84,-5.59 -22.23,-23.11 -26.04,-25.18 -3.25,3.17 -19.7,18.94 -21.04,21.56l75.04 74.93c1.1,-1.31 2.15,-2.21 3.48,-3.69l23.87 -27.5c7.65,-7.9 49.04,-60.68 59.31,-73.08l19.87 -24.84c-1.49,-1.71 -21.69,-17.84 -23.81,-18.96 -1.96,1.39 -3.87,4.34 -5.65,6.02z"/>
    </g>
    <g>
     <rect fill="#1E72BE" x="1593.32" y="2436.69" width="457.92" height="34.74"/>
     <rect fill="#B5DAFF" x="1593.32" y="2501.05" width="884.53" height="34.74"/>
     <rect fill="#B5DAFF" x="1593.32" y="2565.41" width="884.53" height="34.74"/>
    </g>
   </g>
   <g>
    <g>
     <path fill="#B5DAFF" d="M1243.11 2977.36l187.92 0.03 0.3 -105.08 -17.82 20.98c-3.24,4.06 -3.75,2.92 -3.68,9.87 0.16,16.64 0.87,36.39 -0.1,52.74l-145.82 0 0 -145.94 133.46 0c2.4,-0.41 17.81,-19.89 18.43,-21.2l-172.98 -0.27c-1.61,6.99 -0.38,37.96 -0.38,47.42 0,19.6 -0.89,138.95 0.68,141.45z"/>
     <path fill="#1E72BE" d="M1427.16 2799.9l-39.25 47.55c-5.41,6.38 -37.27,44.18 -39.43,47.98 -2.96,-1.77 -22.23,-20.84 -26.36,-24.8 -5.84,-5.59 -22.23,-23.11 -26.04,-25.18 -3.25,3.17 -19.7,18.94 -21.04,21.56l75.04 74.93c1.1,-1.31 2.15,-2.21 3.48,-3.69l23.87 -27.5c7.65,-7.9 49.04,-60.68 59.31,-73.08l19.87 -24.84c-1.49,-1.71 -21.69,-17.84 -23.81,-18.96 -1.96,1.39 -3.87,4.34 -5.65,6.02z"/>
    </g>
    <g>
     <rect fill="#1E72BE" x="1593.32" y="2801.21" width="457.92" height="34.74"/>
     <rect fill="#B5DAFF" x="1593.32" y="2865.56" width="884.53" height="34.74"/>
     <rect fill="#B5DAFF" x="1593.32" y="2929.92" width="884.53" height="34.74"/>
    </g>
   </g>
   <g>
    <rect fill="#2896FF" x="828.93" y="3369.57" width="2059.5" height="182.26"/>
    <path fill="#87C3FF" d="M1354.71 3369.57c510.7,0 1021.39,0 1532.09,0 0,16.9 0,33.79 0,50.69 -271.11,78.23 -1324.15,27.85 -1532.09,-50.69z"/>
    <rect fill="#0582FF" x="1143.39" y="3369.57" width="47.84" height="182.26"/>
    <rect fill="#0582FF" x="1241.36" y="3369.57" width="20.5" height="182.26"/>
    <rect fill="#0582FF" x="2546.77" y="3369.57" width="47.84" height="182.26"/>
    <rect fill="#0582FF" x="2476.15" y="3369.57" width="20.5" height="182.26"/>
   </g>
   <g>
    <path fill="none" d="M2932.33 3678.03l-2086.84 0c-36.34,0 -66.06,-29.73 -66.06,-66.06l0 -5.7c0,-33.2 27.16,-60.37 60.37,-60.37l2092.54 0 0 132.14z"/>
    <path fill="#B5DAFF" d="M2932.33 3678.03l-2086.84 0c-36.34,0 -66.06,-29.73 -66.06,-66.06l0 -5.7c0,-33.2 27.16,-60.37 60.37,-60.37l2092.54 0 0 132.14z"/>
    <path fill="#F7F7F8" d="M992.99 3545.89l1939.34 0c-398.69,93.61 -1908.96,42.21 -1939.34,0z"/>
    <path fill="#164A7C" d="M2954.51 3709.04l-2108.5 0c-52.62,0 -95.68,-43.05 -95.68,-95.68l0 -8.27c0,-48.08 39.34,-87.42 87.43,-87.42l2119.01 0c5.64,0 10.26,4.61 10.26,10.26l0 17.96 -2127.25 0c-33.2,0 -60.37,27.16 -60.37,60.37l0 5.7c0,36.34 29.73,66.06 66.06,66.06l2121.55 0 0 18.49c0,6.89 -5.63,12.52 -12.52,12.52z"/>
   </g>
  </g>
  <polygon fill="#CCCCCC" points="-0,3709.04 5066.15,3709.04 4686.05,3701.79 280.53,3692.68 "/>
 </g>
</svg>
